<?xml version="1.0" encoding="utf-8"?>
<!-- Generator: Adobe Illustrator 16.0.0, SVG Export Plug-In . SVG Version: 6.00 Build 0)  -->
<svg version="1.2" baseProfile="tiny" id="Layer_1" xmlns="http://www.w3.org/2000/svg" xmlns:xlink="http://www.w3.org/1999/xlink"
	 x="0px" y="0px"   viewBox="0 0 3000 3000" xml:space="preserve">
<g>
	<path fill="#015B9A" d="M1153.146,1178.333c-10.909-19.091-128.182-72.272-297.272-106.363
		c-69.546,73.637-69.546,103.637-70.909,115.909c-1.364,12.272,23.182,43.637,47.728,76.363c46.363,60,58.636,70.909,65.454,88.637
		c13.637,34.091-8.182,110.454-24.546,180c0,0-40.908-148.636-60-245.454c-1.363-9.546,1.364-15,1.364-13.637
		c-103.637-9.546-174.546-15-186.818,39.545c-47.728,0-69.546,13.637-75,21.818c-12.272,20.455,2.728,62.728,10.909,83.182
		c6.818-16.363,49.091-13.636,62.728-13.636c5.454,0,5.454,4.091,8.182,6.818v201.817H512.236l-105,282.273
		c49.091,23.182,100.909,42.272,133.637,42.272s111.818-40.909,122.727-42.272c10.91,0,91.364,42.272,122.728,42.272
		c31.364,0,83.183-16.363,133.637-42.272L813.6,1611.97c0,0-107.727,0-122.727,0c0-45,0-145.909,0-190.909
		c-2.728-12.272-8.182-16.363-12.273-17.728h62.728c-9.545-36.817-21.817-61.363-39.545-62.727
		c5.454-6.818,8.182-9.546,16.363-16.364h-47.728c5.455-24.545,66.818-16.363,94.091-13.636
		c27.273,136.363,79.091,317.726,81.818,321.818c2.728,2.727,46.364,19.091,51.818,20.454
		c25.909-54.546,64.091-214.09,65.454-253.636c31.364,10.909,19.092,53.183,12.273,95.455
		c-35.455,219.544-64.091,286.363-73.637,327.272c31.363-6.818,51.818-12.272,54.546-16.363
		c5.454-5.455,19.091-42.272,32.728-83.182c19.09-60,49.09-211.364,47.727-271.364c0-15-12.272-28.636-34.091-39.545
		c0,0,10.909-19.091,16.364-30c6.817-15,13.636-42.273,13.636-42.273c12.272,4.091,23.182,9.546,24.546,21.818
		c6.818,57.272,2.727,62.728-4.092,169.09c-2.727,34.091-13.636,100.909-25.908,171.818c-23.182,129.546-45,184.091-45,204.546
		c34.09-10.909,60-19.091,62.727-23.182c2.728-6.818,28.637-68.183,46.363-162.273c8.183-39.545,13.637-80.454,19.092-121.363
		c9.545-54.546,10.909-110.455,10.909-156.818c0-68.182,8.182-68.182-42.272-95.454c19.09-55.909,15-92.728,10.908-102.273
		c-8.182-20.454-19.091-20.454-64.091-16.363c16.364,15,10.909,45,6.818,62.728c-8.182-6.818-5.454-19.091-53.182-17.728
		c-6.818-77.728-21.818-85.909-23.182-88.637c-6.818-8.182-46.364-4.091-58.637,0c8.182,5.455,27.272,66.818,17.728,90
		c-5.455-6.818-72.272-83.182-68.182-96.818c2.727-8.182,6.818-17.727,30-45c80.454,13.637,216.818,65.455,223.636,79.092
		c8.183,17.727,16.364,38.182,21.818,68.182c6.818,45,20.454,151.363,13.637,313.635c-6.818,167.728-28.637,263.183-28.637,257.728
		c24.546-8.182,66.818-46.363,69.546-54.545c10.908-27.273,16.363-126.818,19.091-216.818c4.091-90-5.455-204.545-10.909-246.818
		C1174.964,1228.789,1168.146,1201.516,1153.146,1178.333z M539.51,1877.879c-24.546,0-62.728-4.091-61.364-4.091l61.364-177.272
		l57.272,178.636C596.782,1875.151,562.691,1877.879,539.51,1877.879z M847.691,1875.151c0,0-38.182,4.091-61.364,4.091
		c-21.817,0-57.272-4.091-57.272-4.091l55.909-178.636L847.691,1875.151z M689.51,1736.061v-68.182h53.182l-80.455,222.272
		l-79.091-222.272h53.182v49.091c0,0,0,4.091,1.364,5.455c6.818,4.091,8.182,4.091,8.182,4.091L689.51,1736.061z M696.327,1374.698
		h-92.727c-6.818-21.818,0-27.272,19.091-28.637C660.873,1341.97,693.6,1341.97,696.327,1374.698z M955.418,1276.516
		c34.092-5.455,17.728,54.545,9.546,77.727c-12.272-28.636-21.818-45-42.272-72.272
		C934.964,1279.243,943.146,1279.243,955.418,1276.516z"/>
	<path fill="#015B9A" d="M358.146,1770.151c16.364-16.363,73.637-75,81.818-106.363c10.909-38.182,19.091-128.182,19.091-148.637
		c0,0-55.909,38.182-85.909,68.182c-12.272,13.637-30,36.818-30,36.818c-5.454-32.727,1.364-68.182,16.364-90
		c19.09-30,88.636-88.635,96.817-113.181c15-38.182,12.272-72.272,24.546-114.545c-46.363,15-103.637,50.454-129.546,79.091
		c-4.091-45,10.909-77.728,40.909-100.909c43.637-32.728,100.909-51.818,139.091-62.728c32.728-9.546,83.183-20.454,110.455-32.728
		c47.728-23.182,94.091-88.636,105-122.727c-16.364,0-72.272-4.092-128.182,17.727c-20.455,8.182-30,25.909-39.546,40.909
		c-9.545,16.364-19.091,28.637-27.272,39.546c-23.182,34.091-50.455,50.454-85.909,60c1.363-2.728,23.182-16.364,39.545-50.455
		c13.637-28.636,30-85.909,30-90c-30,4.091-49.091,12.273-80.454,24.546c-34.091,13.636-43.637,27.272-50.454,39.545
		c-21.818,34.091-16.364,129.546-60,167.728c1.363-50.454,12.272-105-5.455-167.728c-92.728,35.455-109.091,68.183-102.272,107.728
		c8.182,51.818,66.817,76.363,92.727,118.637c6.818,12.272,10.909,30,10.909,32.727c1.364,0-17.727,25.909-12.272,75
		c0,0-19.091-35.454-35.454-58.636c-27.273-35.455-80.455-90-80.455-90c-10.909,140.454,6.818,169.091,13.637,181.363
		c17.728,30,84.545,76.364,98.182,105c6.818,15,8.182,20.455,8.182,20.455c2.728,5.454-13.637,23.182-10.909,47.727
		c1.364,8.183,2.728,19.091,5.455,32.728c0,0-19.091-28.637-46.364-60c-24.545-28.637-72.272-61.363-72.272-61.363
		c-2.728,16.363,5.454,94.091,6.818,106.363c6.818,39.546,8.182,76.363,40.909,110.455c28.636,28.636,121.363,66.817,140.454,73.636
		c0,0-4.091-17.728-12.272-43.636C375.873,1813.788,358.146,1770.151,358.146,1770.151z"/>
	<path fill="#015B9A" d="M1229.51,1149.698h25.908c17.728,0,34.092,4.091,50.455,13.636c10.909,6.818,19.091,13.637,21.818,23.183
		c4.091,12.272,6.818,36.817,6.818,73.636v474.545c0,43.636-4.092,72.272-13.637,83.182c-13.637,17.728-35.455,25.909-65.455,25.909
		h-25.908v20.454h315v-20.454h-25.91c-17.727,0-34.09-4.091-49.09-13.637c-10.91-6.818-19.092-13.636-23.183-23.182
		c-4.091-12.272-6.817-36.818-6.817-73.637v-473.181c0-43.636,4.09-72.272,13.636-83.182c13.637-17.728,35.454-25.909,65.454-25.909
		h25.91v-20.454h-315V1149.698z"/>
	<path fill="#015B9A" d="M2773.146,1592.879c-13.636-27.272-32.728-50.454-58.636-69.546
		c-24.546-19.091-72.273-47.726-140.455-84.544c-84.545-45-137.728-81.818-159.545-107.728c-15-19.091-23.183-38.182-23.183-61.363
		c0-28.637,12.272-55.909,36.818-77.728c24.546-23.182,55.909-34.091,92.728-34.091c32.727,0,65.455,8.182,96.818,25.909
		c31.363,16.363,54.545,39.545,72.272,68.182c16.364,28.637,28.637,68.182,35.455,115.909h20.454v-255h-20.455
		c-4.091,16.363-8.182,28.637-15,34.091c-5.454,5.455-13.636,8.182-23.182,8.182c-8.182,0-23.182-4.091-42.272-13.636
		c-43.637-19.091-84.546-28.637-124.091-28.637c-62.728,0-114.546,19.091-154.092,57.272
		c-40.908,38.182-61.363,83.182-61.363,136.364c0,30,6.818,58.636,20.455,83.182c13.636,25.909,34.091,49.091,60,69.545
		c27.272,20.455,70.908,49.09,133.636,84.545c62.728,35.454,100.909,58.637,115.909,69.545
		c20.455,16.364,36.818,32.728,46.363,51.818c9.546,19.091,15,36.818,15,54.546c0,32.728-13.636,60-39.545,84.545
		c-25.909,23.182-61.363,35.455-106.363,35.455c-39.546,0-75-8.182-107.728-25.909s-57.272-39.546-72.272-65.455
		c-16.364-25.909-28.637-65.454-38.182-118.636h-20.455v214.091c-30-6.818-49.091-15-69.546-28.637
		c-24.545-16.363-54.545-47.728-90-96.818l-151.363-211.363c61.363-13.636,107.728-36.818,136.363-70.909
		c30-32.728,43.637-72.272,43.637-117.272c0-42.273-12.272-79.091-38.183-109.091c-25.908-30-57.272-51.818-94.09-62.728
		c-36.818-10.909-94.092-17.728-173.182-17.728H1608.6v20.455h27.273c27.272,0,49.09,8.182,62.727,23.182
		c9.545,10.909,15,39.545,15,85.909v474.544c0,42.273-4.091,68.182-10.909,79.091c-13.636,20.455-35.454,30-66.818,30H1608.6v20.455
		h315v-20.455h-28.637c-27.272,0-47.727-8.182-61.363-23.182c-9.545-10.909-15-39.545-15-85.909v-212.727
		c5.454,0,10.909,0,16.363,1.363c5.455,0,10.909,0,15,0c10.909,0,25.909,0,45-1.363l248.182,343.636h169.092l0,0h23.182
		c2.727-8.182,5.454-13.636,8.182-16.363c5.454-5.454,12.272-8.182,21.818-8.182c9.545,0,31.363,5.454,66.818,17.728
		c35.454,10.909,58.636,17.727,69.545,20.454c19.091,2.728,38.182,5.455,60,5.455c68.182,0,124.091-20.455,166.363-60
		c43.637-40.909,64.092-88.637,64.092-143.183C2793.6,1647.425,2786.782,1620.151,2773.146,1592.879z M1848.6,1487.879
		c-2.727,0-6.817,0-12.272,0c-5.454,0-10.909,0-17.728,0v-306.818c35.455-6.818,64.092-10.909,84.546-10.909
		c47.728,0,85.909,15,114.546,43.637c28.636,28.637,43.636,65.454,43.636,111.818c0,46.363-17.728,85.909-53.182,115.909
		C1971.327,1472.879,1919.51,1487.879,1848.6,1487.879z"/>
</g>
</svg>
